<svg xmlns="http://www.w3.org/2000/svg" viewBox="0 0 96 96"><path d="M85.399 51.084a1 1 0 0 0 0 1.832C89.283 54.615 92 58.493 92 63s-2.717 8.385-6.601 10.084a1 1 0 0 0 0 1.832C89.283 76.615 92 80.493 92 85c0 6.071-4.929 11-11 11-4.507 0-8.385-2.717-10.084-6.601a1 1 0 0 0-1.832 0C67.385 93.283 63.507 96 59 96s-8.385-2.717-10.084-6.601a1 1 0 0 0-1.832 0C45.385 93.283 41.507 96 37 96s-8.385-2.717-10.084-6.601a1 1 0 0 0-1.832 0C23.385 93.283 19.507 96 15 96 8.929 96 4 91.071 4 85c0-4.507 2.717-8.385 6.601-10.084a1 1 0 0 0 0-1.832C6.717 71.385 4 67.507 4 63s2.717-8.385 6.601-10.084a1 1 0 0 0 0-1.832C6.717 49.385 4 45.507 4 41c0-6.071 4.929-11 11-11 4.507 0 8.385 2.717 10.084 6.601a1 1 0 0 0 1.832 0C28.615 32.717 32.493 30 37 30s8.385 2.717 10.084 6.601a1 1 0 0 0 1.832 0C50.615 32.717 54.493 30 59 30s8.385 2.717 10.084 6.601a1 1 0 0 0 1.832 0C72.615 32.717 76.493 30 81 30c6.071 0 11 4.929 11 11 0 4.507-2.717 8.385-6.601 10.084m-58.483-5.685a1 1 0 0 0-1.832 0 11.06 11.06 0 0 1-5.685 5.685 1 1 0 0 0 0 1.832 11.06 11.06 0 0 1 5.685 5.685 1 1 0 0 0 1.832 0 11.06 11.06 0 0 1 5.685-5.685 1 1 0 0 0 0-1.832 11.06 11.06 0 0 1-5.685-5.685m44 22a1 1 0 0 0-1.832 0 11.06 11.06 0 0 1-5.685 5.685 1 1 0 0 0 0 1.832 11.06 11.06 0 0 1 5.685 5.685 1 1 0 0 0 1.832 0 11.06 11.06 0 0 1 5.685-5.685 1 1 0 0 0 0-1.832 11.06 11.06 0 0 1-5.685-5.685m0-22a1 1 0 0 0-1.832 0 11.06 11.06 0 0 1-5.685 5.685 1 1 0 0 0 0 1.832 11.06 11.06 0 0 1 5.685 5.685 1 1 0 0 0 1.832 0 11.06 11.06 0 0 1 5.685-5.685 1 1 0 0 0 0-1.832 11.06 11.06 0 0 1-5.685-5.685m-22 0a1 1 0 0 0-1.832 0 11.06 11.06 0 0 1-5.685 5.685 1 1 0 0 0 0 1.832 11.06 11.06 0 0 1 5.685 5.685 1 1 0 0 0 1.832 0 11.06 11.06 0 0 1 5.685-5.685 1 1 0 0 0 0-1.832 11.06 11.06 0 0 1-5.685-5.685m-22 22a1 1 0 0 0-1.832 0 11.06 11.06 0 0 1-5.685 5.685 1 1 0 0 0 0 1.832 11.06 11.06 0 0 1 5.685 5.685 1 1 0 0 0 1.832 0 11.06 11.06 0 0 1 5.685-5.685 1 1 0 0 0 0-1.832 11.06 11.06 0 0 1-5.685-5.685m22 0a1 1 0 0 0-1.832 0 11.06 11.06 0 0 1-5.685 5.685 1 1 0 0 0 0 1.832 11.06 11.06 0 0 1 5.685 5.685 1 1 0 0 0 1.832 0 11.06 11.06 0 0 1 5.685-5.685 1 1 0 0 0 0-1.832 11.06 11.06 0 0 1-5.685-5.685" fill="#4d7c0f"/><path d="M70.916 15.399a1 1 0 0 0-1.832 0C67.385 19.283 63.507 22 59 22s-8.385-2.717-10.084-6.601a1 1 0 0 0-1.832 0C45.385 19.283 41.507 22 37 22s-8.385-2.717-10.084-6.601a1 1 0 0 0-1.832 0C23.385 19.283 19.507 22 15 22 8.929 22 4 17.071 4 11S8.929 0 15 0c4.507 0 8.385 2.717 10.084 6.601a1 1 0 0 0 1.832 0C28.615 2.717 32.493 0 37 0s8.385 2.717 10.084 6.601a1 1 0 0 0 1.832 0C50.615 2.717 54.493 0 59 0s8.385 2.717 10.084 6.601a1 1 0 0 0 1.832 0C72.615 2.717 76.493 0 81 0c6.071 0 11 4.929 11 11s-4.929 11-11 11c-4.507 0-8.385-2.717-10.084-6.601" fill="#088eaf"/></svg>